<?xml version="1.0" encoding="UTF-8" standalone="no" ?>
<!DOCTYPE svg PUBLIC "-//W3C//DTD SVG 1.1//EN" "http://www.w3.org/Graphics/SVG/1.1/DTD/svg11.dtd">
<svg xmlns="http://www.w3.org/2000/svg" xmlns:xlink="http://www.w3.org/1999/xlink" version="1.1" width="1080" height="1080" viewBox="0 0 1080 1080" xml:space="preserve">
<desc>Created with Fabric.js 5.2.4</desc>
<defs>
</defs>
<g transform="matrix(1 0 0 1 540 540)" id="6563cd8a-16db-40c0-a39b-24f7e3d220ff"  >
<rect style="stroke: none; stroke-width: 1; stroke-dasharray: none; stroke-linecap: butt; stroke-dashoffset: 0; stroke-linejoin: miter; stroke-miterlimit: 4; fill: rgb(255,255,255); fill-rule: nonzero; opacity: 1; visibility: hidden;" vector-effect="non-scaling-stroke"  x="-540" y="-540" rx="0" ry="0" width="1080" height="1080" />
</g>
<g transform="matrix(1 0 0 1 540 540)" id="c7b67779-78ee-49b6-949b-4fede644a33b"  >
</g>
<g transform="matrix(7.48 0 0 7.48 593.82 519.12)" id="bc623376-5780-4b1f-9732-718533185577"  >
<path style="stroke: rgb(0,0,0); stroke-opacity: 0; stroke-width: 0; stroke-dasharray: none; stroke-linecap: butt; stroke-dashoffset: 0; stroke-linejoin: miter; stroke-miterlimit: 4; fill: rgb(207,171,56); fill-rule: nonzero; opacity: 1;" vector-effect="non-scaling-stroke"  transform=" translate(-32, -32)" d="M 2 6 L 2 58 C 2 60.2 3.8 62 6 62 L 58 62 C 60.2 62 62 60.2 62 58 L 62 6 C 62 3.8 60.2 2 58 2 L 6 2 C 3.8 2 2 3.8 2 6 z M 19.1 52 L 12 52 L 12 24.4 L 19.1 24.4 L 19.1 52 z M 15.6 18.9 C 13.6 18.9 12 17.4 12 15.499999999999998 C 12 13.599999999999998 13.6 12.099999999999998 15.6 12.099999999999998 C 17.6 12.099999999999998 19.2 13.599999999999998 19.2 15.499999999999998 C 19.1 17.4 17.5 18.9 15.6 18.9 z M 52 52 L 44.9 52 L 44.9 38.2 C 44.9 35.300000000000004 44.8 33.400000000000006 44.5 32.5 C 44.2 31.6 43.7 31 43.1 30.5 C 42.4 30 41.6 29.8 40.7 29.8 C 39.5 29.8 38.400000000000006 30.1 37.5 30.8 C 36.5 31.5 35.9 32.4 35.5 33.5 C 35.1 34.6 35 36.7 35 39.7 L 35 52 L 26.4 52 L 26.4 24.4 L 33.5 24.4 L 33.5 28.5 C 35.9 25.4 39 23.8 42.7 23.8 C 44.300000000000004 23.8 45.800000000000004 24.1 47.2 24.7 C 48.5 25.3 49.6 26 50.300000000000004 26.9 C 51.00000000000001 27.799999999999997 51.50000000000001 28.799999999999997 51.7 30 C 52 31.1 52.1 32.8 52.1 34.9 L 52.1 52 z" stroke-linecap="round" />
</g>
</svg>