<?xml version="1.0" encoding="UTF-8" standalone="no" ?>
<!DOCTYPE svg PUBLIC "-//W3C//DTD SVG 1.1//EN" "http://www.w3.org/Graphics/SVG/1.1/DTD/svg11.dtd">
<svg xmlns="http://www.w3.org/2000/svg" xmlns:xlink="http://www.w3.org/1999/xlink" version="1.1" width="1080" height="1080" viewBox="0 0 1080 1080" xml:space="preserve">
<desc>Created with Fabric.js 5.2.4</desc>
<defs>
</defs>
<g transform="matrix(1 0 0 1 540 540)" id="91330157-1d0e-4f2b-a309-494b9cc25499"  >
<rect style="stroke: none; stroke-width: 1; stroke-dasharray: none; stroke-linecap: butt; stroke-dashoffset: 0; stroke-linejoin: miter; stroke-miterlimit: 4; fill: rgb(255,255,255); fill-rule: nonzero; opacity: 1; visibility: hidden;" vector-effect="non-scaling-stroke"  x="-540" y="-540" rx="0" ry="0" width="1080" height="1080" />
</g>
<g transform="matrix(1 0 0 1 540 540)" id="7ca5819d-8ff2-4569-a38f-dbbfa073811b"  >
</g>
<g transform="matrix(1 0 0 1 540 540)"  >
<g style="" vector-effect="non-scaling-stroke"   >
		<g transform="matrix(1 0 0 1 0 0)"  >
<path style="stroke: none; stroke-width: 1; stroke-dasharray: none; stroke-linecap: butt; stroke-dashoffset: 0; stroke-linejoin: miter; stroke-miterlimit: 4; fill: rgb(207,171,56); fill-rule: nonzero; opacity: 1;" vector-effect="non-scaling-stroke"  transform=" translate(-256, -256.05)" d="M 265 96 C 330.3 96 383.7 97.1 433.1 99.3 L 433.8 99.3 L 434.5 99.3 C 457.6 99.3 476.5 121.3 476.5 148.4 L 476.5 149.5 L 476.6 150.6 C 478.90000000000003 184.6 480 219.89999999999998 480 255.5 L 480 255.5 L 480 255.5 C 480.1 291.1 478.9 326.4 476.6 360.4 L 476.5 361.5 L 476.5 362.6 C 476.5 376.40000000000003 471.8 389.20000000000005 463.1 398.70000000000005 C 455.3 407.30000000000007 445.1 412.1 434.5 412.1 L 433.7 412.1 L 432.9 412.1 C 380 414.6 324.09999999999997 415.90000000000003 266.5 415.90000000000003 C 263 415.90000000000003 259.4 415.90000000000003 255.9 415.90000000000003 L 256 415.90000000000003 L 255.9 415.90000000000003 C 252.3 415.90000000000003 248.70000000000002 415.90000000000003 245.1 415.90000000000003 C 187.3 415.90000000000003 131.39999999999998 414.6 78.9 412.20000000000005 L 78.10000000000001 412.20000000000005 L 77.30000000000001 412.20000000000005 C 66.70000000000002 412.20000000000005 56.60000000000001 407.40000000000003 48.80000000000001 398.80000000000007 C 40.20000000000001 389.30000000000007 35.40000000000001 376.50000000000006 35.40000000000001 362.70000000000005 L 35.40000000000001 361.6 L 35.30000000000001 360.5 C 32.90000000000001 326.4 31.80000000000001 291.1 32.000000000000014 255.8 L 32.000000000000014 255.70000000000002 L 32.000000000000014 255.60000000000002 C 31.900000000000013 220.3 33.000000000000014 185.10000000000002 35.30000000000001 151.00000000000003 L 35.40000000000001 149.90000000000003 L 35.40000000000001 148.80000000000004 C 35.40000000000001 121.60000000000004 54.20000000000002 99.50000000000004 77.30000000000001 99.50000000000004 L 78 99.50000000000004 L 78.7 99.50000000000004 C 128.2 97.20000000000005 181.60000000000002 96.20000000000005 246.89999999999998 96.20000000000005 L 255.89999999999998 96.20000000000005 L 265 96.20000000000005 M 265 64 C 262 64 259 64 256 64 C 253 64 250 64 247 64 C 189.4 64 132.8 64.8 77.4 67.3 C 36.60000000000001 67.3 3.5 103.6 3.5 148.6 C 1 184.4 -0.1 220 0 255.7 C -0.1 291.4 0.9 327 3.4 362.7 C 3.4 407.7 36.5 444.29999999999995 77.30000000000001 444.29999999999995 C 132.10000000000002 446.9 188 448.09999999999997 245.10000000000002 448.09999999999997 C 248.70000000000002 448.09999999999997 252.40000000000003 448.09999999999997 256 448.09999999999997 C 259.6 448.09999999999997 263.2 448.09999999999997 266.7 448.09999999999997 C 323.8 448.09999999999997 379.7 446.9 434.6 444.29999999999995 C 475.5 444.29999999999995 508.6 407.69999999999993 508.6 362.69999999999993 C 511 326.99999999999994 512.1 291.29999999999995 512 255.59999999999994 C 512.1 219.89999999999992 511 184.29999999999995 508.6 148.49999999999994 C 508.6 103.49999999999994 475.5 67.39999999999995 434.6 67.39999999999995 C 379.2 64.8 322.7 64 265 64 L 265 64 z" stroke-linecap="round" />
</g>
		<g transform="matrix(1 0 0 1 23.5 -0.45)"  >
<path style="stroke: none; stroke-width: 1; stroke-dasharray: none; stroke-linecap: butt; stroke-dashoffset: 0; stroke-linejoin: miter; stroke-miterlimit: 4; fill: rgb(207,171,56); fill-rule: nonzero; opacity: 1;" vector-effect="non-scaling-stroke"  transform=" translate(-279.5, -255.6)" d="M 207 353.8 L 207 157.4 L 352 255.60000000000002 L 207 353.8 z" stroke-linecap="round" />
</g>
</g>
</g>
</svg>